PathFileType	4	(X/Y/Z)	OpenSim_Sub06_CSStiffKnee_Accel.trc
DataRate	CameraRate	NumFrames	NumMarkers	Units	OrigDataRate	OrigDataStartFrame	OrigNumFrames
100	100	20	8	m	100	1792	7164
Frame#	Time	torso_imu_offset_imu	pelvis_imu_offset_imu	tibia_r_imu_offset_imu	femur_r_imu_offset_imu	tibia_l_imu_offset_imu	femur_l_imu_offset_imu	toes_r_imu_offset_imu	toes_l_imu_offset_imu
				X1	Y1	Z1	X2	Y2	Z2	X3	Y3	Z3	X4	Y4	Z4	X5	Y5	Z5	X6	Y6	Z6	X7	Y7	Z7	X8		Y8	Z8	

1792	17.91000000	8.83489962	1.87509229	5.01566021	7.40547607	-2.26584432	4.07888838	8.95794772	1.89362750	4.31933333	8.63594287	-2.45528289	4.47192963	8.87864331	-3.29908477	1.90756515	9.12313595	1.69977550	-1.50275534	12.74902546	-4.70941163	6.93414393	5.72250795	0.38197520	10.63793129
1793	17.92000000	8.89573007	1.93507505	4.93321850	7.27357636	-2.36955130	4.15561112	10.24202604	1.36585498	2.51909443	8.50434837	-2.96612436	4.47134084	8.97678635	-2.99852748	1.96905863	9.30295102	1.27227271	-1.77471051	12.38842633	-0.96732553	7.54241631	6.03112156	0.03945648	10.51988469
1794	17.93000000	9.08073923	2.01707762	4.98733730	7.19017015	-2.69952401	4.37179382	11.56496045	1.38663032	0.06175191	8.00055431	-3.71917970	3.95982121	9.35094225	-2.43113660	1.73238228	9.39791110	0.96896834	-2.11414306	12.94858284	4.06593871	9.10140255	6.04196788	-0.08702300	10.53625517
1795	17.94000000	9.16389211	2.16150306	5.03910696	7.15843696	-2.98649909	4.25561556	11.81739055	1.27353048	0.88564818	7.42041704	-4.54746042	3.79726883	9.83989764	-1.85550671	1.62695695	9.47449370	1.18765528	-2.34745255	16.24410730	2.58593879	7.14830459	6.05048715	0.29214808	10.63333979
1796	17.95000000	9.23692825	2.26385925	4.86134860	7.23519702	-2.82164955	4.15560560	10.40188481	1.58398915	5.38199174	6.82372959	-5.84269439	3.51290366	9.98728817	-1.40846185	1.74385445	9.23834307	1.17984551	-2.42005908	17.03070639	4.52768382	4.50451372	5.76934907	0.66907836	10.84382175
1797	17.96000000	9.34010085	2.32095567	4.76908062	7.42510923	-2.57940298	4.13709396	8.50849040	3.05059206	5.37642496	6.46632100	-7.71003410	2.75314136	9.94085468	-1.05878381	1.59306822	8.98659048	1.32738958	-2.34360185	16.27469965	9.88391852	2.63513621	5.94613549	0.76504093	10.84499739
1798	17.97000000	9.26166369	2.25112728	4.79349753	7.48659295	-2.15861166	4.13065459	6.95356182	4.25941826	2.70742643	7.03245129	-8.14833830	2.46589453	9.99261308	-0.64085298	1.56805604	8.81196168	1.35687099	-2.30598123	15.65217839	13.27601153	0.39030347	6.13378080	0.56666516	10.68623073
1799	17.98000000	9.15427563	2.18983101	4.83399806	7.46985276	-2.03148652	4.07759652	5.87345349	2.82492114	2.92009260	8.10424648	-6.89905673	2.99148549	10.23651393	-0.25711344	1.62717549	8.65322580	1.40947727	-2.19475410	15.95325306	12.86207062	-1.98202215	5.94598402	0.66106941	10.80020457
1800	17.99000000	8.96591023	2.11837066	4.87698946	7.56598415	-2.03787053	3.90873743	6.02997179	0.00965006	3.58142921	8.55944115	-5.68021863	3.55277152	10.49844521	0.23243363	1.62967437	8.55302819	1.58861199	-2.09674089	15.41295452	12.02662130	-3.48315767	5.68331088	0.46474299	11.03414740
1801	18.00000000	8.87078726	2.05595788	4.91287139	7.67487002	-2.06162919	3.57219548	7.31603802	-0.61668672	3.03833976	8.55468648	-4.57943708	3.62769934	10.50826262	0.74251736	1.77060532	8.59713485	1.85261342	-2.06365889	13.73982715	6.13905496	-5.24869576	5.42261743	0.65798917	11.34352021
1802	18.01000000	8.81918502	2.05961392	4.87610349	7.71317816	-2.24086705	3.26006315	8.04677815	0.80135708	2.91009958	8.33455419	-3.53320898	3.28311206	10.26164503	1.35225812	2.03407694	8.54323712	2.19835369	-1.97881258	11.39950437	-1.36269081	-8.21508159	5.68891384	0.51333333	11.27817919
1803	18.02000000	8.85998470	2.02919518	4.84946798	7.84137136	-2.40160567	3.21087508	8.20690844	1.89386077	3.19424807	7.99936372	-2.62358019	2.64964752	10.14286609	2.26341986	2.43530017	8.51458457	2.56530568	-1.98000194	19.24173094	13.93772740	-10.24414314	5.93616640	0.34434843	11.27069927
1804	18.03000000	9.02912000	1.90672907	4.96645316	7.95018525	-2.37773501	3.36901018	7.72253906	2.25328791	5.45457392	7.39071289	-2.07965647	1.81998071	10.33456731	3.19361065	2.81515464	8.34983841	2.98013361	-2.04927242	14.17528619	13.17381456	-0.98301111	5.64820770	0.65331572	11.52503622
1805	18.04000000	9.10473534	1.79438681	4.91989060	8.08835409	-2.17224482	5.03968153	8.49490033	3.00780088	7.56966169	6.81055763	-1.78378530	1.93582589	10.47156142	3.85304787	3.27054095	8.04806279	3.07622789	-2.09529132	38.91224313	5.99264118	24.58814321	5.25827575	0.80654546	12.08805705
1806	18.05000000	11.91577818	1.74505561	4.72600079	7.97304272	-1.00587856	9.12162234	14.80401199	3.16453707	7.11552755	9.66887274	-1.29216268	3.45045079	11.26520677	4.13919709	3.50049902	7.99020227	3.21234685	-1.93548871	48.85264164	15.87754153	25.49816951	5.10456094	1.49042809	13.14983666
1807	18.06000000	15.88030723	1.34478776	5.96160385	9.93316062	1.34081316	11.85423474	24.76523060	2.04776088	7.30878712	21.84253738	-3.74895399	1.99720338	13.60746188	4.34494426	3.65978911	9.26477267	3.58989169	-1.24017961	-35.73832591	-7.46191882	12.49903979	4.94454294	2.87757371	14.18737173
1808	18.07000000	15.00723526	-0.10016701	8.33645826	17.33437380	3.39358639	10.46537487	27.46160093	0.22511648	7.08535400	32.43372049	-7.46085125	-4.07148875	16.19998784	4.57106005	4.73264140	11.65635800	3.61261241	-1.05254924	24.09901381	-10.87420250	5.91152452	4.84102496	4.19806566	14.47443579
1809	18.08000000	12.77897925	-1.61930659	8.69851804	20.95117863	5.60694531	10.94886233	18.43734017	0.46448146	6.24579213	25.69807795	-3.25498370	-5.07024779	16.54940333	3.85969320	6.53103990	12.00085233	3.10033573	-1.15593315	7.87704730	5.62307788	13.43602599	4.85244219	3.94274589	14.67508130
1810	18.09000000	12.53189930	-2.76683932	8.03343688	14.42684984	5.65310841	12.48107409	8.71076669	0.51302520	6.13482354	14.97280671	2.48771753	0.61322347	14.20950813	1.30929154	7.63732027	11.62156249	2.70656016	-0.60455879	8.53921703	-2.89000469	7.86694001	4.60242081	3.56254048	15.38349267
1811	18.10000000	11.76063257	-3.86009898	7.14933455	9.39322007	1.42001288	9.45547319	4.77467853	3.47269458	1.94061898	7.41942344	5.47416581	2.17081863	12.61411355	-1.82825437	7.47681374	12.38594815	2.76256771	-0.12980478	5.66405499	-0.25922366	8.97619332	5.04649754	2.08637895	15.60115998
